<?xml version="1.0" standalone="no"?>
<!DOCTYPE svg PUBLIC "-//W3C//DTD SVG 20010904//EN"
 "http://www.w3.org/TR/2001/REC-SVG-20010904/DTD/svg10.dtd">
<svg version="1.0" xmlns="http://www.w3.org/2000/svg"
 width="1024.000000pt" height="1024.000000pt" viewBox="0 0 1024.000000 1024.000000"
 preserveAspectRatio="xMidYMid meet">

<g transform="translate(0.000000,1024.000000) scale(0.100000,-0.100000)"
fill="#ffffff" stroke="none">
<path d="M4921 9129 c-411 -46 -822 -218 -1207 -504 -380 -282 -760 -702
-1096 -1212 -177 -267 -328 -531 -653 -1143 -303 -570 -445 -803 -600 -985
-89 -104 -109 -142 -95 -179 18 -48 51 -60 151 -52 l91 7 -6 -38 c-3 -21 -8
-65 -12 -98 -25 -244 -84 -527 -149 -715 -47 -134 -127 -304 -216 -451 -38
-64 -69 -127 -69 -141 0 -60 77 -104 138 -79 34 15 44 29 131 181 104 181 202
443 252 670 11 52 22 96 23 98 2 2 9 -26 15 -60 63 -365 56 -547 -31 -756 -17
-42 -45 -98 -60 -124 -53 -87 -47 -147 18 -174 29 -12 39 -12 68 0 39 16 60
44 114 151 125 250 149 486 83 815 -59 296 -116 728 -98 746 3 4 57 17 120 30
579 117 817 220 1137 489 378 317 456 372 715 499 346 170 761 310 1067 358
132 21 665 17 792 -5 324 -57 706 -191 1036 -364 247 -129 378 -218 604 -411
252 -216 404 -312 626 -397 92 -36 541 -156 655 -176 39 -7 73 -15 76 -18 8
-7 -23 -314 -45 -456 -9 -55 -31 -174 -48 -265 -29 -148 -33 -184 -33 -340 0
-146 4 -189 22 -261 43 -171 137 -364 188 -387 39 -18 79 -15 109 9 39 30 36
85 -8 158 -41 67 -86 179 -112 276 -28 107 -25 336 8 525 14 80 27 138 30 130
3 -8 21 -83 41 -165 57 -233 143 -447 259 -643 82 -137 125 -165 198 -127 68
35 65 74 -14 205 -145 239 -234 441 -290 662 -38 146 -82 411 -92 556 l-7 93
94 -7 c87 -6 96 -5 122 16 21 16 27 30 27 59 0 40 -4 46 -124 192 -136 167
-293 425 -561 924 -383 715 -489 901 -660 1160 -655 993 -1388 1565 -2182
1705 -137 24 -413 34 -542 19z m458 -274 c820 -117 1596 -781 2283 -1955 114
-195 416 -751 538 -990 20 -39 14 -35 -132 78 -573 444 -864 637 -1263 832
-325 160 -597 261 -915 340 -189 47 -285 65 -455 85 -719 83 -1637 -171 -2435
-673 -223 -141 -561 -384 -842 -609 -65 -51 -118 -92 -118 -90 0 7 384 726
458 857 601 1069 1237 1728 1933 2004 131 52 306 100 436 120 119 19 383 19
512 1z m-137 -1864 c26 -12 71 -44 99 -69 52 -47 143 -162 134 -170 -10 -11
-139 0 -173 13 -20 9 -61 35 -92 57 -62 48 -190 175 -190 190 0 7 33 9 88 6
64 -3 100 -10 134 -27z m416 -31 c67 -29 124 -92 184 -205 l47 -87 -57 7
c-112 13 -155 47 -282 219 l-72 99 63 -5 c35 -3 88 -16 117 -28z m-798 -21
c66 -35 204 -155 194 -170 -3 -5 -40 -9 -82 -9 -91 1 -154 23 -270 98 -42 27
-90 57 -105 66 -16 10 -27 19 -25 22 2 2 29 10 59 19 80 22 155 14 229 -26z
m1174 -59 c87 -33 136 -85 201 -211 31 -61 54 -113 52 -116 -9 -8 -105 16
-147 37 -48 25 -106 99 -170 219 l-48 91 29 0 c15 0 53 -9 83 -20z m-1578 -37
c60 -31 182 -113 183 -123 2 -14 -132 -42 -172 -36 -49 7 -341 146 -330 157
24 23 104 39 178 36 67 -2 90 -7 141 -34z m1973 -88 c134 -63 195 -149 235
-337 6 -26 6 -26 -32 -16 -83 23 -158 82 -195 155 -14 27 -87 211 -87 219 0
10 29 2 79 -21z m-2413 -21 c25 -8 89 -39 141 -67 l94 -52 -53 -25 c-89 -41
-153 -35 -332 33 -82 32 -151 59 -153 61 -2 2 24 18 58 35 51 26 74 31 130 31
38 0 89 -7 115 -16z m2802 -148 c64 -32 138 -113 172 -189 29 -64 65 -176 58
-182 -2 -2 -30 7 -62 20 -102 42 -148 102 -191 250 -14 50 -28 98 -31 108 -7
22 -3 22 54 -7z m-3197 -16 c30 -6 92 -28 139 -51 94 -45 94 -41 -5 -90 -82
-40 -128 -38 -278 11 -67 22 -128 44 -136 49 -28 18 126 88 200 90 15 1 51 -4
80 -9z m-326 -214 c28 -7 80 -22 118 -32 37 -10 67 -21 67 -25 0 -13 -100 -59
-160 -75 -68 -17 -105 -15 -263 15 l-90 17 40 32 c96 76 185 97 288 68z"/>
<path d="M5049 8446 l-73 -175 -61 -5 c-33 -3 -118 -10 -189 -16 -71 -6 -131
-12 -133 -13 -1 -2 64 -58 145 -125 l148 -121 -48 -188 c-26 -103 -47 -189
-48 -190 0 -1 74 43 165 98 91 54 168 99 171 99 9 0 284 -169 307 -188 9 -8
20 -13 23 -10 3 3 -17 92 -43 197 l-49 191 143 119 142 119 -47 6 c-26 3 -90
8 -142 11 -170 10 -188 14 -194 40 -8 33 -125 308 -135 318 -4 4 -41 -71 -82
-167z"/>
<path d="M3866 8048 c-19 -51 -45 -126 -58 -165 l-22 -73 -40 0 c-50 0 -299
-21 -305 -26 -2 -2 9 -14 24 -26 39 -31 204 -156 227 -172 17 -13 17 -20 -22
-177 -21 -89 -38 -165 -36 -166 2 -2 61 36 131 84 71 48 131 87 134 86 11 -3
276 -155 289 -165 7 -6 14 -9 16 -7 2 2 -15 79 -39 170 l-42 166 129 114 128
114 -127 6 c-71 4 -146 7 -168 8 l-40 1 -64 153 c-35 83 -67 156 -71 160 -4 5
-24 -33 -44 -85z"/>
<path d="M6303 8053 c-22 -49 -53 -123 -69 -165 -25 -65 -32 -76 -49 -73 -11
3 -87 1 -170 -3 l-150 -7 133 -109 c88 -71 131 -113 128 -122 -16 -41 -87
-316 -83 -320 4 -4 203 106 284 156 17 11 35 2 144 -72 68 -46 130 -88 138
-93 17 -10 17 -12 -32 193 l-35 143 137 102 136 101 -40 7 c-22 4 -101 12
-175 19 -74 7 -135 13 -136 13 0 1 -25 73 -55 160 -29 86 -56 157 -60 157 -3
0 -24 -39 -46 -87z"/>
<path d="M4405 6145 c-71 -16 -140 -42 -227 -86 -83 -42 -131 -75 -209 -147
-63 -56 -69 -59 -130 -65 -73 -7 -211 -48 -284 -84 -201 -101 -383 -300 -447
-487 -21 -63 -28 -71 -82 -108 -148 -102 -288 -272 -355 -432 -55 -131 -73
-218 -76 -353 l-2 -121 -61 -81 c-70 -93 -124 -197 -153 -296 -26 -89 -36
-290 -20 -394 20 -129 81 -278 156 -382 l33 -47 -9 -73 c-20 -154 14 -339 91
-494 80 -159 190 -280 326 -356 50 -29 53 -33 65 -87 51 -250 213 -463 439
-577 106 -53 193 -76 315 -82 109 -6 110 -6 158 -45 64 -50 215 -124 296 -144
332 -83 641 27 843 298 28 38 54 65 58 61 3 -4 26 -34 50 -66 99 -132 238
-235 385 -284 73 -25 94 -27 235 -28 119 0 170 4 220 18 87 24 235 96 298 146
49 39 55 41 121 41 346 0 675 257 770 600 12 41 21 85 21 97 0 15 10 28 33 39
127 64 278 226 352 379 69 142 88 231 90 415 l2 155 36 54 c53 76 103 186 129
283 33 120 33 347 0 463 -32 110 -81 208 -153 305 l-60 82 -4 126 c-3 142 -24
236 -78 362 -67 155 -204 319 -342 411 -55 36 -67 49 -76 83 -27 101 -120 247
-219 346 -148 149 -320 233 -529 259 -71 9 -74 10 -139 73 -37 35 -81 74 -98
86 -56 39 -190 101 -265 122 -94 27 -274 37 -361 21 -137 -27 -283 -122 -370
-242 -28 -38 -51 -69 -53 -69 -1 0 -19 25 -40 55 -70 103 -187 192 -311 237
-74 27 -275 35 -369 13z m273 -249 c29 -8 71 -26 95 -39 104 -61 194 -202 206
-320 3 -34 5 -431 3 -882 l-3 -820 -174 170 -175 170 -2 412 -1 413 33 23 c78
52 124 169 101 253 -42 155 -212 218 -344 127 -61 -42 -92 -105 -92 -183 1
-80 25 -131 90 -188 l45 -40 1 -393 c0 -217 4 -416 8 -442 8 -47 16 -57 260
-301 l251 -251 0 -861 c0 -948 2 -908 -63 -1024 -110 -195 -326 -311 -531
-286 l-56 7 0 567 0 567 -170 166 c-201 196 -168 183 -447 173 -155 -6 -183
-5 -183 7 0 25 -62 91 -104 110 -56 25 -155 25 -204 0 -212 -109 -131 -431
108 -431 32 0 72 8 95 19 43 19 109 85 120 120 6 20 12 21 188 21 l182 0 122
-122 123 -123 0 -503 0 -503 -47 32 c-27 18 -67 50 -91 72 l-44 39 -101 -7
c-125 -8 -207 8 -311 63 -163 85 -271 243 -305 445 -10 58 -24 113 -30 121 -7
8 -45 31 -84 51 -274 135 -406 409 -342 710 8 38 15 77 15 87 0 9 -27 49 -61
89 -237 284 -215 646 55 908 37 35 69 74 72 86 3 12 -3 49 -12 81 -41 133 -15
301 68 442 55 94 169 200 270 251 95 47 89 39 132 181 14 47 43 113 64 145 82
127 231 235 375 271 82 20 91 15 108 -64 16 -77 68 -132 125 -132 60 0 106 30
128 83 l19 46 -29 87 -29 87 65 59 c143 132 352 195 508 154z m1183 -15 c77
-24 162 -77 239 -148 l54 -50 -28 -82 c-33 -94 -31 -148 5 -187 33 -35 90 -50
137 -36 54 16 78 47 100 126 10 39 26 75 35 80 23 15 94 -5 196 -55 159 -78
279 -227 322 -400 12 -46 28 -92 37 -102 9 -10 52 -37 96 -60 243 -126 389
-417 332 -660 -25 -108 -25 -110 61 -197 137 -139 191 -257 200 -436 9 -179
-39 -324 -156 -463 -33 -40 -61 -82 -61 -92 0 -10 7 -44 15 -76 19 -74 19
-219 -1 -297 -44 -175 -172 -334 -336 -417 -51 -26 -91 -53 -97 -66 -5 -12
-15 -58 -21 -104 -36 -263 -210 -455 -460 -507 -65 -14 -91 -14 -156 -5 -91
13 -94 12 -177 -63 -104 -93 -260 -153 -399 -154 l-58 0 0 363 0 364 118 110
c64 61 270 268 457 462 l340 351 141 0 141 0 45 -45 c43 -42 49 -45 99 -45 92
0 159 52 175 136 29 154 -150 255 -262 148 l-37 -34 -185 0 -184 0 -231 -237
c-128 -131 -273 -281 -324 -333 l-93 -95 -2 148 c-1 81 -2 172 -3 201 l0 55
294 301 293 301 233 -3 c285 -4 275 -8 275 117 0 45 3 136 6 202 l7 120 38 17
c80 36 126 126 115 224 -8 69 -35 121 -87 165 -58 50 -121 64 -194 42 -181
-52 -234 -263 -97 -387 23 -21 47 -38 52 -38 7 0 10 -53 8 -152 l-3 -153 -210
-3 -211 -2 -336 -338 -336 -337 -6 -325 -7 -325 -94 -96 -95 -96 0 -362 c0
-198 -4 -361 -8 -361 -5 0 -30 14 -55 31 -73 48 -154 145 -200 238 l-42 84 -3
532 -3 532 528 519 c290 285 569 559 620 609 l91 90 7 69 c4 38 5 116 1 173
-4 58 -4 137 0 176 l7 72 51 25 c73 36 107 89 113 177 6 76 -7 117 -51 170
-61 73 -196 99 -281 55 -167 -86 -180 -316 -22 -398 l28 -15 -1 -213 -1 -213
-392 -384 c-216 -211 -461 -451 -544 -533 l-153 -149 0 494 0 495 251 243
c138 134 258 255 266 268 12 18 17 62 20 195 l4 172 27 17 c67 41 103 110 103
197 1 136 -85 226 -216 227 -52 0 -68 -5 -112 -33 -72 -46 -106 -99 -111 -173
-6 -79 16 -136 73 -188 25 -23 49 -41 55 -41 6 0 10 -55 10 -151 l0 -152 -147
-142 c-82 -78 -165 -156 -186 -175 l-38 -33 3 610 3 610 44 88 c65 131 149
207 258 235 59 15 210 5 284 -19z m-1280 -586 c78 -41 47 -165 -41 -165 -32 0
-80 49 -80 80 0 35 24 73 55 86 38 16 31 17 66 -1z m1196 -17 c16 -15 23 -33
23 -59 0 -52 -8 -67 -42 -85 -83 -43 -161 74 -93 141 31 32 80 33 112 3z m718
-362 c39 -17 55 -42 55 -89 0 -34 -15 -54 -58 -76 -50 -26 -132 22 -132 77 0
33 32 79 64 92 29 12 32 12 71 -4z m539 -617 c78 -93 -39 -205 -125 -120 -60
60 -24 151 60 151 32 0 44 -6 65 -31z m-3669 -1391 c55 -25 71 -103 30 -143
-35 -36 -88 -34 -126 4 -43 44 -33 106 22 137 30 17 42 17 74 2z"/>
<path d="M3746 5005 c-80 -28 -145 -119 -146 -204 0 -91 52 -183 120 -211 l30
-12 0 -297 c0 -164 4 -303 10 -311 5 -8 150 -155 322 -327 l313 -313 -272 0
-273 0 -147 138 c-81 75 -176 164 -210 197 l-63 60 -1 188 -1 188 45 29 c144
91 137 310 -12 398 -102 59 -251 21 -315 -82 -56 -90 -36 -222 44 -290 17 -14
42 -29 56 -32 l24 -6 0 -228 c0 -212 1 -229 20 -253 11 -14 113 -112 227 -218
115 -106 223 -206 241 -223 l32 -30 360 3 360 3 0 -535 c0 -529 0 -535 21
-561 29 -37 92 -34 121 5 24 32 23 5 20 762 l-2 617 -92 0 -91 0 -288 288
-289 287 -1 269 0 270 44 32 c74 54 109 152 87 246 -10 40 -24 63 -60 99 -67
67 -147 85 -234 54z m131 -150 c48 -34 33 -120 -26 -144 -82 -34 -151 103 -74
148 26 15 75 13 100 -4z m-462 -470 c31 -30 34 -93 7 -118 -70 -64 -172 -25
-172 64 0 11 13 34 29 50 39 39 100 41 136 4z"/>
<path d="M4184 4440 c-11 -4 -33 -22 -47 -40 -21 -25 -27 -42 -27 -82 0 -44 4
-54 34 -84 29 -29 41 -34 80 -34 94 0 153 98 108 179 -30 56 -95 82 -148 61z"/>
<path d="M3055 3525 c-48 -17 -72 -44 -81 -91 -10 -56 3 -99 42 -133 82 -73
214 -10 214 102 0 95 -84 153 -175 122z"/>
<path d="M3698 2368 c-87 -75 -74 -195 26 -233 55 -21 103 -14 146 21 62 52
62 140 0 199 -24 23 -41 29 -87 32 -49 4 -62 1 -85 -19z"/>
<path d="M5824 4110 c-46 -14 -76 -52 -82 -106 -18 -161 203 -199 250 -43 9
31 8 43 -8 75 -33 65 -94 94 -160 74z"/>
<path d="M6580 2664 c-44 -19 -106 -79 -129 -124 -41 -79 -33 -169 19 -231
l27 -33 -164 -171 -164 -171 -66 -11 c-97 -17 -145 -73 -108 -130 23 -34 51
-42 124 -32 133 19 124 12 336 238 190 203 196 208 242 215 64 8 137 58 170
114 51 86 27 223 -51 289 -71 60 -163 78 -236 47z m115 -136 c52 -24 73 -110
35 -148 -59 -59 -160 -23 -160 58 0 75 61 119 125 90z"/>
</g>
</svg>
